# xmcd
#
# Track frame offsets: 
#        150
#        27460
#        48580
#        73670
#        98045
#        118525
#        136305
#        159545
#        175910
#        202325
#
# Disc length: 2937 seconds
#
# Revision: 0
# Processed by: cddbd v1.5.2PL0 Copyright (c) Steve Scherf et al.
# Submitted via: ExactAudioCopy v1.0b3
#
DISCID=910b770a
DTITLE=Huong Lan - Ngau Hung Ly Qua Cau
DYEAR=1994
DGENRE=
TTITLE0=Ngau hung ly qua cau
TTITLE1=Da ta
TTITLE2=Duong ve hai thon
TTITLE3=Tinh lua duyen trang
TTITLE4=Duong sang nha anh
TTITLE5=Tieng ho mien Nam
TTITLE6=Nhat ky hai dua minh
TTITLE7=Ngua o Hue
TTITLE8=Tinh chang y thiep
TTITLE9=Ly chieu chieu 2
EXTD=
EXTT0=
EXTT1=
EXTT2=
EXTT3=
EXTT4=
EXTT5=
EXTT6=
EXTT7=
EXTT8=
EXTT9=
PLAYORDER=
